<?xml version="1.0" encoding="UTF-8"?>
<svg version="1.1" xmlns="http://www.w3.org/2000/svg" width="469" height="532">
<path d="M0 0 C1.02090729 0.00007553 2.04181458 0.00015106 3.09365845 0.00022888 C4.75151871 0.00797081 4.75151871 0.00797081 6.44287109 0.01586914 C7.57203949 0.01728409 8.70120789 0.01869904 9.86459351 0.02015686 C13.48185848 0.02576796 17.09906223 0.03832237 20.71630859 0.05102539 C23.16422437 0.05603896 25.61214111 0.06060211 28.06005859 0.06469727 C34.07049625 0.07574099 40.08089805 0.09248996 46.09130859 0.11352539 C46.86436061 3.54111112 47.21748286 6.70552655 47.22070312 10.21655273 C47.22385529 11.20883881 47.22700745 12.20112488 47.23025513 13.22348022 C47.22721878 14.82034164 47.22721878 14.82034164 47.22412109 16.44946289 C47.22555618 18.11677963 47.22555618 18.11677963 47.22702026 19.81777954 C47.22770046 22.17303524 47.22585738 24.52829283 47.22167969 26.88354492 C47.21637982 30.44071829 47.22160379 33.99776246 47.22802734 37.55493164 C47.23226749 44.07536733 47.1759995 50.5937047 47.09130859 57.11352539 C47.08603149 57.94279541 47.08075439 58.77206543 47.07531738 59.62646484 C46.95637427 71.78494773 46.95637427 71.78494773 43.68505859 76.03540039 C42.68669163 77.01286598 41.65399484 77.95640163 40.59130859 78.86352539 C39.49745085 79.91539999 38.40633854 80.97013644 37.31787109 82.02758789 C36.77420898 82.53708984 36.23054688 83.0465918 35.67041016 83.5715332 C33.21666338 85.96761617 31.11846455 88.56760872 28.96630859 91.23852539 C28.26248047 92.10735352 27.55865234 92.97618164 26.83349609 93.87133789 C25.51621517 95.56667253 24.28222144 97.32715612 23.09130859 99.11352539 C22.43130859 99.11352539 21.77130859 99.11352539 21.09130859 99.11352539 C20.85541016 99.66782227 20.61951172 100.22211914 20.37646484 100.79321289 C18.7786631 103.67799781 16.7727985 105.82524571 14.52880859 108.23852539 C11.45411673 111.42860049 11.45411673 111.42860049 9.09130859 115.11352539 C8.43130859 115.11352539 7.77130859 115.11352539 7.09130859 115.11352539 C6.83349609 115.67555664 6.57568359 116.23758789 6.31005859 116.81665039 C4.94961083 119.38057118 3.36341898 121.56578905 1.59130859 123.86352539 C0.98287109 124.66274414 0.37443359 125.46196289 -0.25244141 126.28540039 C-1.07228516 127.19032227 -1.07228516 127.19032227 -1.90869141 128.11352539 C-2.56869141 128.11352539 -3.22869141 128.11352539 -3.90869141 128.11352539 C-4.12654297 128.64075195 -4.34439453 129.16797852 -4.56884766 129.71118164 C-6.41201681 133.01598931 -8.86102926 135.72228703 -11.34619141 138.55102539 C-12.42598056 139.795503 -13.50539865 141.04030264 -14.58447266 142.28540039 C-15.13441895 142.91768555 -15.68436523 143.5499707 -16.25097656 144.20141602 C-18.86564279 147.21733147 -21.45218684 150.25672034 -24.03369141 153.30102539 C-24.72483032 154.11108032 -24.72483032 154.11108032 -25.42993164 154.9375 C-27.40639039 157.26757437 -29.21089418 159.56682955 -30.90869141 162.11352539 C-31.56869141 162.11352539 -32.22869141 162.11352539 -32.90869141 162.11352539 C-33.13814453 162.65235352 -33.36759766 163.19118164 -33.60400391 163.74633789 C-35.29771424 166.81935725 -37.497036 169.35041517 -39.78369141 171.98852539 C-40.26185303 172.54717285 -40.74001465 173.10582031 -41.23266602 173.68139648 C-42.78710739 175.49579219 -44.34737873 177.30504046 -45.90869141 179.11352539 C-47.56413635 181.03471923 -49.2188426 182.95653643 -50.87207031 184.87963867 C-51.92056357 186.09845205 -52.97095521 187.31563546 -54.0234375 188.53100586 C-56.14455822 190.9917342 -58.10392187 193.40637109 -59.90869141 196.11352539 C-60.56869141 196.11352539 -61.22869141 196.11352539 -61.90869141 196.11352539 C-62.13427734 196.64719727 -62.35986328 197.18086914 -62.59228516 197.73071289 C-64.34031004 200.89479354 -66.62008777 203.51562491 -68.97119141 206.23852539 C-69.69894775 207.09087769 -69.69894775 207.09087769 -70.44140625 207.96044922 C-74.28788229 212.44591026 -78.22878064 216.83874696 -82.22900391 221.18774414 C-83.9631906 223.01344797 -83.9631906 223.01344797 -84.90869141 225.11352539 C-85.56869141 225.11352539 -86.22869141 225.11352539 -86.90869141 225.11352539 C-87.56869141 226.76352539 -88.22869141 228.41352539 -88.90869141 230.11352539 C-89.56869141 230.11352539 -90.22869141 230.11352539 -90.90869141 230.11352539 C-91.15490234 230.67942383 -91.40111328 231.24532227 -91.65478516 231.82836914 C-93.12405364 234.50600797 -94.88621576 236.44396151 -96.97119141 238.67602539 C-102.4532679 244.65405711 -107.86838615 250.79309161 -112.54150391 257.43383789 C-112.99267578 257.98813477 -113.44384766 258.54243164 -113.90869141 259.11352539 C-114.56869141 259.11352539 -115.22869141 259.11352539 -115.90869141 259.11352539 C-116.13169922 259.64461914 -116.35470703 260.17571289 -116.58447266 260.72290039 C-118.36542959 263.93807927 -120.70261317 266.59750574 -123.09619141 269.36352539 C-123.59086914 269.94199219 -124.08554688 270.52045898 -124.59521484 271.11645508 C-127.78669447 274.8408889 -131.02563691 278.52191213 -134.27978516 282.19165039 C-136.79974503 285.16484046 -139.11410899 288.29111626 -141.42822266 291.42602539 C-142.16105469 292.26133789 -142.16105469 292.26133789 -142.90869141 293.11352539 C-143.56869141 293.11352539 -144.22869141 293.11352539 -144.90869141 293.11352539 C-145.13298828 293.64719727 -145.35728516 294.18086914 -145.58837891 294.73071289 C-147.34763039 297.90569339 -149.66163178 300.51493062 -152.03369141 303.23852539 C-156.29067655 308.17797623 -160.38763593 313.20137592 -164.35009766 318.38305664 C-164.86443359 318.95411133 -165.37876953 319.52516602 -165.90869141 320.11352539 C-166.56869141 320.11352539 -167.22869141 320.11352539 -167.90869141 320.11352539 C-168.21806641 320.75290039 -168.52744141 321.39227539 -168.84619141 322.05102539 C-169.90869141 324.11352539 -169.90869141 324.11352539 -170.90869141 325.11352539 C-181.08815872 326.33332664 -191.28758447 326.17204068 -201.51171875 325.81665039 C-203.8300432 325.73693152 -206.14850375 325.67064846 -208.46728516 325.60571289 C-209.94517401 325.55960936 -211.42303995 325.51276413 -212.90087891 325.46508789 C-213.5923703 325.44523834 -214.28386169 325.42538879 -214.99630737 325.40493774 C-219.79309848 325.22911831 -219.79309848 325.22911831 -220.90869141 324.11352539 C-221.02400893 321.99311767 -221.06839563 319.86883203 -221.08569336 317.74536133 C-221.09226456 317.0802504 -221.09883575 316.41513947 -221.10560608 315.72987366 C-221.12538542 313.51921486 -221.13701353 311.30862423 -221.14697266 309.09790039 C-221.15308595 307.96676693 -221.15308595 307.96676693 -221.15932274 306.81278229 C-221.180206 302.81944551 -221.19449632 298.8261433 -221.20385742 294.83276367 C-221.21491017 290.70887118 -221.24928982 286.58552005 -221.28902912 282.4618187 C-221.31519156 279.29104619 -221.32354902 276.1204025 -221.3271389 272.94953156 C-221.33200805 271.42969366 -221.34363152 269.90986164 -221.3621769 268.39012909 C-221.38655596 266.25940845 -221.38560632 264.13008533 -221.37866211 261.99926758 C-221.38452835 260.78760925 -221.39039459 259.57595093 -221.3964386 258.32757568 C-220.81544534 254.49907278 -219.6404691 252.81142912 -216.90869141 250.11352539 C-216.24869141 250.11352539 -215.58869141 250.11352539 -214.90869141 250.11352539 C-214.24869141 248.46352539 -213.58869141 246.81352539 -212.90869141 245.11352539 C-212.24869141 245.11352539 -211.58869141 245.11352539 -210.90869141 245.11352539 C-210.63702148 244.52345703 -210.36535156 243.93338867 -210.08544922 243.32543945 C-208.93031536 241.15417124 -207.711761 239.55335723 -206.08056641 237.72290039 C-205.53053955 237.09907471 -204.9805127 236.47524902 -204.41381836 235.83251953 C-203.83462646 235.18275146 -203.25543457 234.5329834 -202.65869141 233.86352539 C-199.01812695 229.73775202 -195.43958967 225.64646886 -192.22119141 221.17602539 C-191.45806641 220.16540039 -190.69494141 219.15477539 -189.90869141 218.11352539 C-189.24869141 218.11352539 -188.58869141 218.11352539 -187.90869141 218.11352539 C-187.63089844 217.52474609 -187.35310547 216.9359668 -187.06689453 216.3293457 C-185.25450776 212.86197168 -182.82116014 209.9305399 -180.40869141 206.86352539 C-179.90982422 206.21383789 -179.41095703 205.56415039 -178.89697266 204.89477539 C-177.61684947 203.26115975 -176.26763541 201.68218298 -174.90869141 200.11352539 C-174.24869141 200.11352539 -173.58869141 200.11352539 -172.90869141 200.11352539 C-172.65087891 199.55149414 -172.39306641 198.98946289 -172.12744141 198.41040039 C-170.76699364 195.8464796 -169.18080179 193.66126174 -167.40869141 191.36352539 C-166.49603516 190.16469727 -166.49603516 190.16469727 -165.56494141 188.94165039 C-165.01837891 188.33836914 -164.47181641 187.73508789 -163.90869141 187.11352539 C-163.24869141 187.11352539 -162.58869141 187.11352539 -161.90869141 187.11352539 C-161.66119141 186.56180664 -161.41369141 186.01008789 -161.15869141 185.44165039 C-159.66634667 182.66215832 -157.87196617 180.33205469 -155.90869141 177.86352539 C-155.20744141 176.97149414 -154.50619141 176.07946289 -153.78369141 175.16040039 C-153.16494141 174.48493164 -152.54619141 173.80946289 -151.90869141 173.11352539 C-151.24869141 173.11352539 -150.58869141 173.11352539 -149.90869141 173.11352539 C-149.68052734 172.57598633 -149.45236328 172.03844727 -149.21728516 171.48461914 C-147.50720344 168.38605316 -145.27902398 165.83567636 -142.97119141 163.17602539 C-141.98546865 162.02502284 -140.99979302 160.87397992 -140.01416016 159.72290039 C-139.50546387 159.13186523 -138.99676758 158.54083008 -138.47265625 157.93188477 C-135.89869292 154.93924055 -133.33991518 151.93382182 -130.78369141 148.92602539 C-130.31068604 148.37374268 -129.83768066 147.82145996 -129.3503418 147.25244141 C-126.87035464 144.36105862 -126.87035464 144.36105862 -124.90869141 141.11352539 C-124.24869141 141.11352539 -123.58869141 141.11352539 -122.90869141 141.11352539 C-122.65087891 140.55149414 -122.39306641 139.98946289 -122.12744141 139.41040039 C-120.76699364 136.8464796 -119.18080179 134.66126174 -117.40869141 132.36352539 C-116.80025391 131.56430664 -116.19181641 130.76508789 -115.56494141 129.94165039 C-115.01837891 129.33836914 -114.47181641 128.73508789 -113.90869141 128.11352539 C-113.24869141 128.11352539 -112.58869141 128.11352539 -111.90869141 128.11352539 C-111.63089844 127.52474609 -111.35310547 126.9359668 -111.06689453 126.3293457 C-109.25450776 122.86197168 -106.82116014 119.9305399 -104.40869141 116.86352539 C-103.90982422 116.21383789 -103.41095703 115.56415039 -102.89697266 114.89477539 C-101.61684947 113.26115975 -100.26763541 111.68218298 -98.90869141 110.11352539 C-98.24869141 110.11352539 -97.58869141 110.11352539 -96.90869141 110.11352539 C-96.54130859 109.28208008 -96.54130859 109.28208008 -96.16650391 108.43383789 C-94.65665349 105.64858588 -92.81702008 103.41860112 -90.78369141 100.98852539 C-86.93546511 96.36941047 -83.20490577 91.67810284 -79.53759766 86.91430664 C-79.00005859 86.32004883 -78.46251953 85.72579102 -77.90869141 85.11352539 C-77.24869141 85.11352539 -76.58869141 85.11352539 -75.90869141 85.11352539 C-75.63484619 84.52128174 -75.36100098 83.92903809 -75.07885742 83.31884766 C-73.95051427 81.19234574 -72.77789446 79.62247176 -71.18603516 77.82836914 C-70.65220215 77.22105957 -70.11836914 76.61375 -69.56835938 75.98803711 C-69.00004395 75.34882324 -68.43172852 74.70960938 -67.84619141 74.05102539 C-66.6588136 72.69919625 -65.47262036 71.34632576 -64.28759766 69.99243164 C-63.70768066 69.33001465 -63.12776367 68.66759766 -62.53027344 67.98510742 C-59.66966497 64.68347771 -56.92941708 61.28668073 -54.18212891 57.89086914 C-50.99423464 53.99637976 -47.7278417 50.16961427 -44.44921875 46.35131836 C-41.9138885 43.41512047 -41.9138885 43.41512047 -39.90869141 40.11352539 C-39.24869141 40.11352539 -38.58869141 40.11352539 -37.90869141 40.11352539 C-37.65087891 39.55149414 -37.39306641 38.98946289 -37.12744141 38.41040039 C-35.76699364 35.8464796 -34.18080179 33.66126174 -32.40869141 31.36352539 C-31.80025391 30.56430664 -31.19181641 29.76508789 -30.56494141 28.94165039 C-29.74509766 28.03672852 -29.74509766 28.03672852 -28.90869141 27.11352539 C-28.24869141 27.11352539 -27.58869141 27.11352539 -26.90869141 27.11352539 C-26.69728516 26.59274414 -26.48587891 26.07196289 -26.26806641 25.53540039 C-24.33401484 22.08967633 -21.76607497 19.31747994 -19.15869141 16.36352539 C-15.72923348 12.43268174 -12.36100843 8.51894002 -9.28369141 4.30102539 C-6.16392179 0.11396618 -4.97058979 -0.01224283 0 0 Z " fill="#DAB37E" transform="translate(324.90869140625,103.886474609375)"/>
<path d="M0 0 C1.74495412 0.00276538 1.74495412 0.00276538 3.52515984 0.00558662 C4.17206996 0.00387777 4.81898008 0.00216892 5.48549354 0.00040829 C7.66287907 -0.00289771 9.83995947 0.00813503 12.01731682 0.01904488 C13.5742422 0.01960875 15.13116811 0.01929289 16.68809319 0.01815987 C20.92342314 0.01758443 25.15864054 0.02936956 29.39394426 0.04330778 C33.81688846 0.05578338 38.23983504 0.05698313 42.66279411 0.0593586 C51.04217034 0.06558272 59.42149458 0.0820061 67.80084789 0.10205758 C77.33879498 0.12438764 86.87674452 0.13540272 96.41471124 0.14544845 C116.03862314 0.16637154 135.66248819 0.20156557 155.28635979 0.24609566 C155.28635979 4.192556 154.00394008 5.13462609 151.47385979 8.12109566 C150.66303947 9.08660347 149.85221916 10.05211128 149.01682854 11.04687691 C148.10736281 12.11387212 147.19717297 13.18025044 146.28635979 14.24609566 C144.77914138 16.01810235 143.27299432 17.79100546 141.76804924 19.56494331 C140.79151235 20.71413206 139.81224203 21.86100444 138.83006096 23.005373 C136.29274688 25.94272245 136.29274688 25.94272245 134.28635979 29.24609566 C133.62635979 29.24609566 132.96635979 29.24609566 132.28635979 29.24609566 C132.03757072 29.80425972 131.78878166 30.36242378 131.53245354 30.93750191 C130.07021581 33.64653795 128.31791965 35.81573886 126.34885979 38.18359566 C125.54448479 39.15425972 124.74010979 40.12492378 123.91135979 41.12500191 C122.15108576 43.22526862 120.37856207 45.31461892 118.59885979 47.39843941 C117.68217547 48.4726431 116.76550894 49.54686196 115.84885979 50.62109566 C115.1636425 51.42184517 115.1636425 51.42184517 114.46458244 52.23877144 C110.60826445 56.78095829 106.98113698 61.47950059 103.45847893 66.28466988 C102.44624574 67.64005788 101.37162638 68.94844813 100.28635979 70.24609566 C99.62635979 70.24609566 98.96635979 70.24609566 98.28635979 70.24609566 C97.94604729 71.01953316 97.94604729 71.01953316 97.59885979 71.80859566 C95.80418361 75.1415657 93.78670963 78.39313237 91.28635979 81.24609566 C90.62635979 81.24609566 89.96635979 81.24609566 89.28635979 81.24609566 C88.95635979 82.23609566 88.62635979 83.22609566 88.28635979 84.24609566 C85.52075307 85.62889902 83.29556453 85.36886737 80.19941521 85.36635017 C78.90088615 85.36772484 77.6023571 85.3690995 76.26447868 85.37051582 C74.81718231 85.36697643 73.36988617 85.36334162 71.92259026 85.35962105 C70.40507318 85.35933911 68.88755598 85.35949705 67.37003899 85.36006355 C63.24217802 85.36035125 59.11434592 85.35445892 54.98649168 85.3474896 C50.67565207 85.34125153 46.36481185 85.3406519 42.05396843 85.33946419 C33.88710657 85.33635221 25.72025805 85.32814062 17.55340207 85.3181147 C8.25728287 85.30694942 -1.03883695 85.30144206 -10.33496118 85.29641926 C-29.46119509 85.2859579 -48.58741658 85.26836103 -67.71364021 85.24609566 C-67.71364021 80.50223762 -66.11636357 78.55771641 -63.33864021 74.99609566 C-62.92614021 74.44179878 -62.51364021 73.88750191 -62.08864021 73.31640816 C-61.01902635 71.91555903 -59.87130148 70.57510751 -58.71364021 69.24609566 C-58.05364021 69.24609566 -57.39364021 69.24609566 -56.71364021 69.24609566 C-56.48547615 68.54355659 -56.25731209 67.84101753 -56.02223396 67.11718941 C-54.45163343 63.67124496 -52.2639255 61.11042345 -49.77614021 58.30859566 C-45.78642857 53.70513304 -41.90240502 49.04623826 -38.15114021 44.24609566 C-37.70206306 43.67302681 -37.25298592 43.09995796 -36.79030037 42.50952339 C-34.45552585 39.51780495 -32.15010967 36.50616439 -29.86989021 33.47265816 C-29.41299812 32.86808784 -28.95610603 32.26351753 -28.48536873 31.64062691 C-27.61289423 30.48350062 -26.74594267 29.32218389 -25.88527107 28.15625191 C-24.87470087 26.81638064 -23.79968914 25.52555056 -22.71364021 24.24609566 C-22.05364021 24.24609566 -21.39364021 24.24609566 -20.71364021 24.24609566 C-20.4493824 23.67246284 -20.18512459 23.09883003 -19.91285896 22.50781441 C-18.64883538 20.12387417 -17.2057603 18.16869046 -15.52614021 16.05859566 C-14.90996834 15.28000191 -14.29379646 14.50140816 -13.65895271 13.69922066 C-13.01699959 12.88968941 -12.37504646 12.08015816 -11.71364021 11.24609566 C-9.87142847 8.86379774 -8.03248349 6.47901131 -6.19410896 4.09375191 C-3.14224835 0.28496544 -3.14224835 0.28496544 0 0 Z " fill="#DFBA87" transform="translate(139.7136402130127,103.75390434265137)"/>
<path d="M0 0 C-1.31065715 2.82042594 -2.76776485 5.11803885 -4.7578125 7.50390625 C-5.29752686 8.15746094 -5.83724121 8.81101562 -6.39331055 9.484375 C-6.96476807 10.17015625 -7.53622559 10.8559375 -8.125 11.5625 C-12.84452425 17.27632989 -17.31459139 23.04480116 -21.51171875 29.15625 C-22.00285156 29.7646875 -22.49398437 30.373125 -23 31 C-23.66 31 -24.32 31 -25 31 C-25.25394531 31.73734375 -25.50789062 32.4746875 -25.76953125 33.234375 C-27.07364452 36.16552482 -28.49618802 37.92522894 -30.6875 40.25 C-34.05925912 43.92552121 -37.17110362 47.69924243 -40.19921875 51.66015625 C-42.84414102 55.09683399 -45.5755241 58.46282943 -48.30078125 61.8359375 C-50.11674161 64.09107859 -50.11674161 64.09107859 -52 67 C-52.66 67 -53.32 67 -54 67 C-54.185625 67.66 -54.37125 68.32 -54.5625 69 C-56.30382475 72.63406905 -58.63284561 75.18068357 -61.34375 78.1328125 C-63.16801905 80.10343191 -63.16801905 80.10343191 -65 83 C-67.44027328 83.38476086 -67.44027328 83.38476086 -70.57513428 83.39872742 C-72.35374596 83.41753464 -72.35374596 83.41753464 -74.16828918 83.4367218 C-75.47625961 83.43528671 -76.78423004 83.43385162 -78.13183594 83.43237305 C-79.51827369 83.4413866 -80.90470344 83.45171282 -82.29112244 83.46325684 C-86.06663778 83.49093814 -89.84200244 83.50012913 -93.61760616 83.50611091 C-97.57628773 83.51549064 -101.53485698 83.54170553 -105.49346924 83.56611633 C-113.00967813 83.60988424 -120.52586539 83.63835481 -128.04216313 83.66143972 C-136.53944883 83.68828951 -145.03661717 83.732303 -153.53382063 83.77772844 C-166.79431675 83.84816868 -180.05482883 83.90901743 -193.31542969 83.95581055 C-194.59910934 83.96044815 -195.882789 83.96508575 -197.20536804 83.96986389 C-205.47029403 83.99750453 -213.73503189 84.00504269 -222 84 C-222.58520508 82.14746094 -222.58520508 82.14746094 -223 80 C-221.63671875 77.640625 -221.63671875 77.640625 -219.6875 75.25 C-219.05199219 74.45078125 -218.41648438 73.6515625 -217.76171875 72.828125 C-217.18035156 72.22484375 -216.59898437 71.6215625 -216 71 C-215.34 71 -214.68 71 -214 71 C-213.773125 70.484375 -213.54625 69.96875 -213.3125 69.4375 C-211.51782382 66.10452995 -209.50034985 62.85296329 -207 60 C-206.34 60 -205.68 60 -205 60 C-204.77570313 59.46632813 -204.55140625 58.93265625 -204.3203125 58.3828125 C-202.56098072 55.2076871 -200.24651859 52.59917717 -197.875 49.875 C-196.88307802 48.71963912 -195.89220244 47.5633791 -194.90234375 46.40625 C-194.41233887 45.83390625 -193.92233398 45.2615625 -193.41748047 44.671875 C-189.40865231 39.9435844 -185.4398868 35.1598302 -182 30 C-181.34 30 -180.68 30 -180 30 C-179.773125 29.484375 -179.54625 28.96875 -179.3125 28.4375 C-177.51782382 25.10452995 -175.50034985 21.85296329 -173 19 C-172.34 19 -171.68 19 -171 19 C-170.773125 18.29875 -170.54625 17.5975 -170.3125 16.875 C-168.66158712 13.25871465 -166.7091165 10.91230024 -164 8 C-163.34 8 -162.68 8 -162 8 C-161.731875 7.236875 -161.46375 6.47375 -161.1875 5.6875 C-159.98728037 2.97121347 -159.34219308 1.76223402 -157 0 C-154.28939342 -0.38755417 -154.28939342 -0.38755417 -150.94706726 -0.40545654 C-149.68107697 -0.41943985 -148.41508667 -0.43342316 -147.11073303 -0.4478302 C-145.70492559 -0.44825093 -144.29911804 -0.44837837 -142.89331055 -0.44824219 C-141.41492768 -0.4588942 -139.93655367 -0.47084297 -138.45819092 -0.48399353 C-134.43949167 -0.51591235 -130.42092086 -0.52924891 -126.40211463 -0.53904247 C-122.19679285 -0.55213715 -117.99158117 -0.58127982 -113.78633118 -0.60845947 C-106.72061376 -0.65179425 -99.65491762 -0.68389157 -92.58911133 -0.70849609 C-83.52637149 -0.74011592 -74.46383488 -0.79031978 -65.40121746 -0.84641647 C-57.60635965 -0.89449604 -49.81146092 -0.9337754 -42.0165484 -0.97177219 C-39.51344962 -0.98436629 -37.01036004 -0.99820633 -34.50726891 -1.01222992 C-30.56831643 -1.03375578 -26.62937713 -1.04977825 -22.69038391 -1.06158638 C-21.24643035 -1.06668314 -19.80248166 -1.07350679 -18.3585453 -1.08220482 C-16.38368039 -1.09376973 -14.408778 -1.09828788 -12.43388367 -1.10247803 C-11.32978496 -1.10687771 -10.22568624 -1.11127739 -9.08813 -1.11581039 C-5.979778 -0.99924164 -3.05302063 -0.58007097 0 0 Z " fill="#B28255" transform="translate(402,346)"/>
<path d="M0 0 C1.74495412 0.00276538 1.74495412 0.00276538 3.52515984 0.00558662 C4.17206996 0.00387777 4.81898008 0.00216892 5.48549354 0.00040829 C7.66287907 -0.00289771 9.83995947 0.00813503 12.01731682 0.01904488 C13.5742422 0.01960875 15.13116811 0.01929289 16.68809319 0.01815987 C20.92342314 0.01758443 25.15864054 0.02936956 29.39394426 0.04330778 C33.81688846 0.05578338 38.23983504 0.05698313 42.66279411 0.0593586 C51.04217034 0.06558272 59.42149458 0.0820061 67.80084789 0.10205758 C77.33879498 0.12438764 86.87674452 0.13540272 96.41471124 0.14544845 C116.03862314 0.16637154 135.66248819 0.20156557 155.28635979 0.24609566 C155.28635979 4.63578022 153.15830877 6.01515305 150.28635979 9.24609566 C150.28635979 6.62495857 150.59928423 4.73674454 151.28635979 2.24609566 C150.35045415 2.25382626 150.35045415 2.25382626 149.39564133 2.26171303 C134.10786893 2.38792764 118.82008859 2.51312907 103.53229904 2.63724709 C96.13879179 2.69729687 88.74528748 2.75767092 81.35178947 2.81884956 C74.89634043 2.87226531 68.44088642 2.92503068 61.98542607 2.9770627 C58.57758388 3.0045519 55.16974474 3.03233427 51.76191139 3.06089973 C49.17470278 3.08247525 46.58749054 3.1036213 44.00027466 3.12430763 C41.53983099 3.14402878 39.07939508 3.16474686 36.61896896 3.18654823 C31.01478564 3.23171758 25.41397952 3.24866508 19.80985832 3.18921089 C18.80386148 3.18062805 17.79786465 3.17204521 16.76138306 3.16320229 C14.91455561 3.1449732 13.06778027 3.11848405 11.22123337 3.08149147 C6.19267431 3.0347367 1.98864614 3.37248492 -2.71364021 5.24609566 C-3.04364021 6.23609566 -3.37364021 7.22609566 -3.71364021 8.24609566 C-4.35301521 8.69984566 -4.99239021 9.15359566 -5.65114021 9.62109566 C-7.89340464 11.08720846 -7.89340464 11.08720846 -8.52223396 13.57812691 C-10.02818984 16.95048057 -11.91031274 18.34357873 -14.83864021 20.55859566 C-15.74871834 21.25597847 -16.65879646 21.95336128 -17.59645271 22.67187691 C-18.64446053 23.45111519 -18.64446053 23.45111519 -19.71364021 24.24609566 C-19.71364021 20.4030441 -18.58739104 19.53350177 -16.15114021 16.62109566 C-15.42539803 15.74195503 -14.69965584 14.86281441 -13.95192146 13.95703316 C-13.21328865 13.06242378 -12.47465584 12.16781441 -11.71364021 11.24609566 C-9.84976418 8.8594691 -8.0031937 6.46039788 -6.15895271 4.05859566 C-3.15039722 0.28570445 -3.15039722 0.28570445 0 0 Z " fill="#D6BC96" transform="translate(139.7136402130127,103.75390434265137)"/>
<path d="M0 0 C16.83 0 33.66 0 51 0 C51.73736762 3.68683809 52.12603769 6.4430883 52.12939453 10.10302734 C52.13254669 11.09531342 52.13569885 12.08759949 52.13894653 13.10995483 C52.1369223 14.17452911 52.13489807 15.23910339 52.1328125 16.3359375 C52.13376923 17.44748199 52.13472595 18.55902649 52.13571167 19.70425415 C52.13639186 22.05950985 52.13454878 24.41476744 52.13037109 26.77001953 C52.12507123 30.3271929 52.13029519 33.88423707 52.13671875 37.44140625 C52.1466377 56.90486035 52.1466377 56.90486035 51.7109375 65.85546875 C51.6598584 66.95012451 51.6087793 68.04478027 51.55615234 69.17260742 C50.62092888 73.92713898 47.7809214 77.0994402 44 80 C43.67 80 43.34 80 43 80 C43.33 77.69 43.66 75.38 44 73 C46.475 72.01 46.475 72.01 49 71 C49.33 47.9 49.66 24.8 50 1 C33.5 1 17 1 0 1 C0 0.67 0 0.34 0 0 Z " fill="#EFE0C2" transform="translate(320,104)"/>
<path d="M0 0 C0.64776455 -0.00256327 1.29552909 -0.00512655 1.96292287 -0.0077675 C4.137343 -0.01271599 6.31107151 0.00380412 8.48542786 0.02018738 C10.04250065 0.02103342 11.59957464 0.02055895 13.15664673 0.01885986 C17.38784352 0.01799761 21.61878621 0.03566055 25.84992385 0.05658174 C30.27018563 0.07531019 34.69045296 0.07709595 39.11074829 0.08065796 C47.48303936 0.08998971 55.85521318 0.11461875 64.22745258 0.14470643 C73.75815863 0.17821532 83.28887022 0.1947276 92.81962049 0.20979273 C112.42679429 0.24116734 132.03386248 0.29394976 151.64094543 0.36076355 C151.64094543 1.35076355 151.64094543 2.34076355 151.64094543 3.36076355 C150.98094543 4.02076355 150.32094543 4.68076355 149.64094543 5.36076355 C149.31094543 4.37076355 148.98094543 3.38076355 148.64094543 2.36076355 C128.66553027 2.24394989 108.69018444 2.15578501 88.71449852 2.10170269 C79.43937638 2.07592358 70.16446649 2.04077871 60.88948059 1.98356628 C52.80516945 1.93372227 44.72101203 1.9014704 36.6365515 1.89032108 C32.35600672 1.88380396 28.0759017 1.86849337 23.79549789 1.83211327 C19.76530632 1.79813777 15.73573501 1.78771354 11.70541382 1.79522514 C10.22757215 1.79385127 8.74970942 1.78392738 7.27199173 1.76473618 C-1.56923815 1.32327052 -1.56923815 1.32327052 -9.28517151 4.89624023 C-9.96955292 5.70953293 -10.65393433 6.52282562 -11.35905457 7.36076355 C-8.6756632 1.37473665 -6.65720488 -0.01583792 0 0 Z " fill="#F3DFC7" transform="translate(143.3590545654297,103.63923645019531)"/>
<path d="M0 0 C0 3 0 3 -1 6 C74.24 6.495 74.24 6.495 151 7 C151 7.33 151 7.66 151 8 C100.18 8 49.36 8 -3 8 C-3 3.73173127 -2.62386487 3.06117568 0 0 Z " fill="#FFFAD2" transform="translate(75,181)"/>
<path d="M0 0 C1.15027679 0.00444122 2.30055359 0.00888245 3.48568726 0.01345825 C4.78688507 0.01360931 6.08808289 0.01376038 7.42871094 0.01391602 C8.85444286 0.02413011 10.28017325 0.03456211 11.7059021 0.04519653 C13.16035773 0.04892608 14.61481587 0.05177333 16.0692749 0.05377197 C19.89982016 0.06141303 23.73021406 0.08106546 27.56069946 0.10317993 C31.46845451 0.12362825 35.37623399 0.13277151 39.2840271 0.14285278 C46.95336698 0.16431101 54.62258209 0.19845252 62.2918396 0.24050903 C62.2918396 0.57050903 62.2918396 0.90050903 62.2918396 1.24050903 C41.1718396 1.57050903 20.0518396 1.90050903 -1.7081604 2.24050903 C-2.0381604 4.22050903 -2.3681604 6.20050903 -2.7081604 8.24050903 C-4.8956604 9.86550903 -4.8956604 9.86550903 -7.7081604 11.24050903 C-9.71396369 12.56509611 -11.71531902 13.89649973 -13.7081604 15.24050903 C-12.33871938 12.29094375 -10.82985631 9.71582093 -8.7081604 7.24050903 C-8.0481604 7.24050903 -7.3881604 7.24050903 -6.7081604 7.24050903 C-6.4194104 6.45675903 -6.1306604 5.67300903 -5.8331604 4.86550903 C-4.38288869 1.4815417 -3.7504291 0.33307188 0 0 Z " fill="#A98763" transform="translate(246.70816040039063,346.7594909667969)"/>
<path d="M0 0 C0.33 0.66 0.66 1.32 1 2 C1.66 2 2.32 2 3 2 C3 3.32 3 4.64 3 6 C4.77842285 5.88410522 4.77842285 5.88410522 6.59277344 5.76586914 C19.51866867 4.98636543 32.31227409 5.04110145 45.25 5.4375 C47.18227229 5.49093961 49.11456414 5.54367686 51.046875 5.59570312 C55.69818064 5.7224222 60.34912241 5.85847109 65 6 C65 6.33 65 6.66 65 7 C41.9 7 18.8 7 -5 7 C-2 2 -2 2 0 0 Z " fill="#A17B53" transform="translate(185,421)"/>
<path d="M0 0 C0.93972656 0.28037109 0.93972656 0.28037109 1.8984375 0.56640625 C0.4474301 2.4055432 -1.01257909 4.23758155 -2.4765625 6.06640625 C-3.28867188 7.08734375 -4.10078125 8.10828125 -4.9375 9.16015625 C-5.65164062 9.95421875 -6.36578125 10.74828125 -7.1015625 11.56640625 C-7.7615625 11.56640625 -8.4215625 11.56640625 -9.1015625 11.56640625 C-9.31554687 12.0871875 -9.52953125 12.60796875 -9.75 13.14453125 C-11.65962193 16.56639714 -14.16832138 19.36209227 -16.7265625 22.31640625 C-17.2421875 22.91839844 -17.7578125 23.52039063 -18.2890625 24.140625 C-19.55625385 25.61901491 -20.82842025 27.09313796 -22.1015625 28.56640625 C-22.4315625 27.24640625 -22.7615625 25.92640625 -23.1015625 24.56640625 C-22.4415625 24.56640625 -21.7815625 24.56640625 -21.1015625 24.56640625 C-21.1015625 23.90640625 -21.1015625 23.24640625 -21.1015625 22.56640625 C-20.4415625 22.56640625 -19.7815625 22.56640625 -19.1015625 22.56640625 C-19.00488281 22.00308594 -18.90820312 21.43976563 -18.80859375 20.859375 C-17.93852824 18.03767084 -16.59074773 16.21299525 -14.7890625 13.87890625 C-14.19480469 13.09128906 -13.60054687 12.30367188 -12.98828125 11.4921875 C-10.92499667 9.38618481 -9.88191645 9.18754915 -7.1015625 8.56640625 C-6.37075984 6.58894022 -5.70734503 4.58568136 -5.1015625 2.56640625 C-2.86129053 -0.59034061 -2.86129053 -0.59034061 0 0 Z " fill="#E2CBAB" transform="translate(218.1015625,351.43359375)"/>
<path d="M0 0 C0 4.16489668 -1.71819222 5.14928605 -4.5625 8.125 C-8.55605221 12.35501254 -12.19852054 16.71479622 -15.625 21.41796875 C-16.07875 21.94003906 -16.5325 22.46210938 -17 23 C-17.66 23 -18.32 23 -19 23 C-19.28875 23.639375 -19.5775 24.27875 -19.875 24.9375 C-21 27 -21 27 -23 28 C-23.37254569 24.64708882 -23.31050198 23.3961577 -21.1875 20.6875 C-19 19 -19 19 -16 19 C-15.95875 18.2575 -15.9175 17.515 -15.875 16.75 C-14.65879677 12.92764699 -12.2667043 12.17780287 -9 10 C-8.62690101 8.34178227 -8.29299023 6.67422986 -8 5 C-5.36182638 2.50067762 -3.45378026 1.15126009 0 0 Z " fill="#E5CEAE" transform="translate(282,277)"/>
<path d="M0 0 C0.66 0 1.32 0 2 0 C2 0.99 2 1.98 2 3 C1.01 3.495 1.01 3.495 0 4 C-0.2475 4.9075 -0.495 5.815 -0.75 6.75 C-2.40036679 11.04095365 -4.27852428 12.3639547 -8 15 C-8.66 15 -9.32 15 -10 15 C-10.0825 15.928125 -10.165 16.85625 -10.25 17.8125 C-11 21 -11 21 -12.75 22.75 C-15.10998803 24.06110446 -17.46196353 25.08348683 -20 26 C-18.51516897 22.76306836 -16.67292565 20.0674375 -14.5 17.25 C-13.8915625 16.45078125 -13.283125 15.6515625 -12.65625 14.828125 C-12.1096875 14.22484375 -11.563125 13.6215625 -11 13 C-10.34 13 -9.68 13 -9 13 C-8.7421875 12.43796875 -8.484375 11.8759375 -8.21875 11.296875 C-6.85830223 8.73295421 -5.27211038 6.54773635 -3.5 4.25 C-2.8915625 3.45078125 -2.283125 2.6515625 -1.65625 1.828125 C-1.1096875 1.22484375 -0.563125 0.6215625 0 0 Z " fill="#E1CEAC" transform="translate(161,291)"/>
<path d="M0 0 C0.33 0.66 0.66 1.32 1 2 C-1.10270286 6.09473715 -3.79085361 10.8954268 -8 13 C-8.29132813 13.75796875 -8.58265625 14.5159375 -8.8828125 15.296875 C-10.13099468 18.31695217 -11.56154961 19.96273962 -13.875 22.25 C-14.55304688 22.93578125 -15.23109375 23.6215625 -15.9296875 24.328125 C-18.02805287 26.02265402 -19.36577827 26.59836978 -22 27 C-21.505 25.515 -21.505 25.515 -21 24 C-20.34 24 -19.68 24 -19 24 C-18.7421875 23.43796875 -18.484375 22.8759375 -18.21875 22.296875 C-16.85830223 19.73295421 -15.27211038 17.54773635 -13.5 15.25 C-12.8915625 14.45078125 -12.283125 13.6515625 -11.65625 12.828125 C-11.1096875 12.22484375 -10.563125 11.6215625 -10 11 C-9.34 11 -8.68 11 -8 11 C-7.73445312 10.41734375 -7.46890625 9.8346875 -7.1953125 9.234375 C-5.96697004 6.93825772 -4.59685061 5.19643982 -2.875 3.25 C-2.33617187 2.63640625 -1.79734375 2.0228125 -1.2421875 1.390625 C-0.83226562 0.93171875 -0.42234375 0.4728125 0 0 Z " fill="#E2CCAA" transform="translate(221,221)"/>
<path d="M0 0 C0 3.60777515 -0.9904432 5.06295544 -3 8 C-3.99 8.495 -3.99 8.495 -5 9 C-5.67784992 11.33010909 -6.34416793 13.66359824 -7 16 C-7.66 16.66 -8.32 17.32 -9 18 C-9.37322427 21.10756015 -9.37322427 21.10756015 -9.4140625 24.7578125 C-9.43342865 25.42086395 -9.4527948 26.08391541 -9.4727478 26.76705933 C-9.53255954 28.88624177 -9.57893388 31.0054785 -9.625 33.125 C-9.66317845 34.56122169 -9.70223011 35.99742045 -9.7421875 37.43359375 C-9.83826125 40.95551936 -9.92228642 44.47761608 -10 48 C-10.33 48 -10.66 48 -11 48 C-11.04957858 43.39186151 -11.08580385 38.78387963 -11.10986328 34.17553711 C-11.11989726 32.60910333 -11.13352754 31.04268817 -11.15087891 29.47631836 C-11.17524225 27.21984247 -11.18650916 24.96361506 -11.1953125 22.70703125 C-11.20563507 22.01100296 -11.21595764 21.31497467 -11.22659302 20.59785461 C-11.22750439 16.61415509 -10.7555827 13.58709891 -9 10 C-8.34 10 -7.68 10 -7 10 C-6.34 8.35 -5.68 6.7 -5 5 C-4.34 5 -3.68 5 -3 5 C-2.690625 4.360625 -2.38125 3.72125 -2.0625 3.0625 C-1 1 -1 1 0 0 Z " fill="#D6B68B" transform="translate(117,344)"/>
<path d="M0 0 C0.33 0.66 0.66 1.32 1 2 C1.66 2.33 2.32 2.66 3 3 C1.625 5 1.625 5 0 7 C-0.66 7 -1.32 7 -2 7 C-2.21398437 7.52078125 -2.42796875 8.0415625 -2.6484375 8.578125 C-4.55805943 11.99999089 -7.06675888 14.79568602 -9.625 17.75 C-10.140625 18.35199219 -10.65625 18.95398438 -11.1875 19.57421875 C-12.45469135 21.05260866 -13.72685775 22.52673171 -15 24 C-15.64453125 22.16015625 -15.64453125 22.16015625 -16 20 C-13.6875 17.4375 -13.6875 17.4375 -11 15 C-10.34 14.01 -9.68 13.02 -9 12 C-7.5 9.8125 -7.5 9.8125 -6 8 C-5.34 8 -4.68 8 -4 8 C-3.71125 7.236875 -3.4225 6.47375 -3.125 5.6875 C-2 3 -2 3 0 0 Z " fill="#E1C7A6" transform="translate(323,225)"/>
<path d="M0 0 C0 3.62453269 -0.92469613 5.07920195 -3 8 C-3.99 8.33 -4.98 8.66 -6 9 C-6.61067144 10.85744207 -6.61067144 10.85744207 -7 13 C-8.52161889 17.28819869 -11.4193601 19.36932579 -15 22 C-15.99 22 -16.98 22 -18 22 C-18 21.34 -18 20.68 -18 20 C-17.34 20 -16.68 20 -16 20 C-15.7421875 19.43796875 -15.484375 18.8759375 -15.21875 18.296875 C-13.85830223 15.73295421 -12.27211038 13.54773635 -10.5 11.25 C-9.8915625 10.45078125 -9.283125 9.6515625 -8.65625 8.828125 C-8.1096875 8.22484375 -7.563125 7.6215625 -7 7 C-6.34 7 -5.68 7 -5 7 C-4.731875 6.401875 -4.46375 5.80375 -4.1875 5.1875 C-3.01506533 3.02775192 -1.80630718 1.64209744 0 0 Z " fill="#DEC39A" transform="translate(303,124)"/>
<path d="M0 0 C0.66 0.33 1.32 0.66 2 1 C2 1.66 2 2.32 2 3 C1.38125 3.433125 0.7625 3.86625 0.125 4.3125 C-2.17422394 5.82918625 -2.17422394 5.82918625 -2.8125 8.3359375 C-4.31523853 11.70721277 -6.19857702 13.09892364 -9.125 15.3125 C-10.03507812 16.00988281 -10.94515625 16.70726563 -11.8828125 17.42578125 C-12.93082031 18.20501953 -12.93082031 18.20501953 -14 19 C-14 12.83210042 -7.28702666 7.17445174 -3.0625 2.9375 C-2.381875 2.298125 -1.70125 1.65875 -1 1 C-0.67 0.67 -0.34 0.34 0 0 Z " fill="#DCBE8F" transform="translate(134,109)"/>
<path d="M0 0 C0.33 0.66 0.66 1.32 1 2 C1.66 2.33 2.32 2.66 3 3 C2.39671875 3.73605469 1.7934375 4.47210938 1.171875 5.23046875 C0.37265625 6.20628906 -0.4265625 7.18210937 -1.25 8.1875 C-2.03890625 9.15042969 -2.8278125 10.11335938 -3.640625 11.10546875 C-5.1837178 12.9985677 -6.69588205 14.91741285 -8.171875 16.86328125 C-8.77515625 17.56839844 -9.3784375 18.27351563 -10 19 C-10.66 19 -11.32 19 -12 19 C-12.66 20.32 -13.32 21.64 -14 23 C-14.93423645 19.98968256 -15.04449911 19.13349732 -14 16 C-12.19153461 15.03117926 -10.38279846 14.06284048 -8.5703125 13.1015625 C-6.72593151 12.06349887 -6.72593151 12.06349887 -6.375 9.5 C-6.25125 8.675 -6.1275 7.85 -6 7 C-4.37373596 5.61767557 -2.7074998 4.28062485 -1 3 C-0.67 2.01 -0.34 1.02 0 0 Z " fill="#E5CFB0" transform="translate(169,405)"/>
<path d="M0 0 C0.99 0.33 1.98 0.66 3 1 C2.01 2.485 2.01 2.485 1 4 C0.34 4 -0.32 4 -1 4 C-1.66 5.65 -2.32 7.3 -3 9 C-3.66 9 -4.32 9 -5 9 C-5.226875 9.53625 -5.45375 10.0725 -5.6875 10.625 C-7.43382056 13.78500863 -9.6402849 16.2676983 -12 19 C-12.66 17.68 -13.32 16.36 -14 15 C-12.68 14.34 -11.36 13.68 -10 13 C-10 12.34 -10 11.68 -10 11 C-9.01 11 -8.02 11 -7 11 C-6.855625 10.38125 -6.71125 9.7625 -6.5625 9.125 C-6 7 -6 7 -5 5 C-4.34 5 -3.68 5 -3 5 C-2.87625 4.360625 -2.7525 3.72125 -2.625 3.0625 C-2.41875 2.381875 -2.2125 1.70125 -2 1 C-1.34 0.67 -0.68 0.34 0 0 Z " fill="#DDC3A1" transform="translate(239,325)"/>
<path d="M0 0 C0.33 0.99 0.66 1.98 1 3 C-0.88335426 6.4769617 -2.32086135 8.5986908 -5.75 10.625 C-6.4925 11.07875 -7.235 11.5325 -8 12 C-8 13.32 -8 14.64 -8 16 C-12.11111111 20 -12.11111111 20 -16 20 C-16 19.34 -16 18.68 -16 18 C-15.34 18 -14.68 18 -14 18 C-13.78472656 17.47792969 -13.56945312 16.95585937 -13.34765625 16.41796875 C-11.4544122 13.02110478 -8.97456471 10.24587955 -6.4375 7.3125 C-5.93025391 6.71888672 -5.42300781 6.12527344 -4.90039062 5.51367188 C-1.24503968 1.24503968 -1.24503968 1.24503968 0 0 Z " fill="#E1CCAB" transform="translate(189,259)"/>
<path d="M0 0 C0.99 0.66 1.98 1.32 3 2 C-5.261959 12.55808656 -5.261959 12.55808656 -10 17 C-9.75 13.6875 -9.75 13.6875 -9 10 C-7 8.3125 -7 8.3125 -5 7 C-4.20376178 4.90584196 -4.20376178 4.90584196 -4 3 C-2.68 2.67 -1.36 2.34 0 2 C0 1.34 0 0.68 0 0 Z " fill="#E3CEAE" transform="translate(256,304)"/>
<path d="M0 0 C0.33 1.32 0.66 2.64 1 4 C0.360625 4.226875 -0.27875 4.45375 -0.9375 4.6875 C-3.26012621 5.82682205 -3.26012621 5.82682205 -3.5625 8.4375 C-3.7790625 9.7059375 -3.7790625 9.7059375 -4 11 C-5.5 12.625 -5.5 12.625 -7 14 C-7.33 14.99 -7.66 15.98 -8 17 C-10.4375 18.125 -10.4375 18.125 -13 19 C-13.66 19.33 -14.32 19.66 -15 20 C-13.6300094 17.02879676 -12.03719635 14.63345438 -9.9609375 12.109375 C-9.38085938 11.40039062 -8.80078125 10.69140625 -8.203125 9.9609375 C-7.59984375 9.23132813 -6.9965625 8.50171875 -6.375 7.75 C-5.76398438 7.00492187 -5.15296875 6.25984375 -4.5234375 5.4921875 C-3.0189924 3.65864503 -1.51110107 1.82805754 0 0 Z " fill="#C8AC8D" transform="translate(217,380)"/>
<path d="M0 0 C0 3 0 3 -1.8125 5.25 C-4.17601078 7.94538425 -4.17601078 7.94538425 -5.375 11.5 C-7.34700027 15.7473852 -9.27542206 17.26864285 -13 20 C-13.66 19.67 -14.32 19.34 -15 19 C-14.21654285 17.82780457 -13.42297164 16.66236332 -12.625 15.5 C-12.18414062 14.8503125 -11.74328125 14.200625 -11.2890625 13.53125 C-10.65097656 12.77328125 -10.65097656 12.77328125 -10 12 C-9.34 12 -8.68 12 -8 12 C-7.79375 11.319375 -7.5875 10.63875 -7.375 9.9375 C-5.54591134 6.02990149 -2.89720966 3.16142061 0 0 Z " fill="#ECDCC4" transform="translate(91,161)"/>
<path d="M0 0 C1.32 0 2.64 0 4 0 C2.32076975 3.80133442 -0.11462834 6.97082702 -2.625 10.25 C-3.04523438 10.80429687 -3.46546875 11.35859375 -3.8984375 11.9296875 C-4.92938719 13.28866663 -5.96429911 14.64463835 -7 16 C-7.66 15.67 -8.32 15.34 -9 15 C-9 13.68 -9 12.36 -9 11 C-8.34 11 -7.68 11 -7 11 C-6.731875 10.38125 -6.46375 9.7625 -6.1875 9.125 C-5 7 -5 7 -2 5 C-0.79549696 2.44816596 -0.79549696 2.44816596 0 0 Z " fill="#C3A88F" transform="translate(386,361)"/>
<path d="M0 0 C0.99 0.33 1.98 0.66 3 1 C1.38247153 3.17262127 -0.24338637 5.33799958 -1.875 7.5 C-2.33519531 8.12003906 -2.79539063 8.74007812 -3.26953125 9.37890625 C-4.46562174 10.95635892 -5.72856726 12.48261798 -7 14 C-7.66 14 -8.32 14 -9 14 C-9.33 14.99 -9.66 15.98 -10 17 C-10.33 17 -10.66 17 -11 17 C-11.25 14.75 -11.25 14.75 -11 12 C-9.125 9.6875 -9.125 9.6875 -7 8 C-6.34 8 -5.68 8 -5 8 C-5 7.34 -5 6.68 -5 6 C-4.34 6 -3.68 6 -3 6 C-3 5.01 -3 4.02 -3 3 C-2.01 3 -1.02 3 0 3 C0 2.01 0 1.02 0 0 Z " fill="#E1C6A6" transform="translate(247,160)"/>
<path d="M0 0 C1.12383849 3.37151546 1.16190374 4.68027502 0 8 C-2.1875 9.5625 -2.1875 9.5625 -5 11 C-7.00580329 12.32458708 -9.00715862 13.6559907 -11 15 C-9.63055898 12.05043472 -8.12169591 9.47531189 -6 7 C-5.34 7 -4.68 7 -4 7 C-3.71125 6.21625 -3.4225 5.4325 -3.125 4.625 C-2 2 -2 2 0 0 Z " fill="#B79470" transform="translate(244,347)"/>
<path d="M0 0 C-0.58172725 3.9520518 -2.55157741 6.22095053 -5.0625 9.25 C-5.79597656 10.14203125 -6.52945312 11.0340625 -7.28515625 11.953125 C-7.85105469 12.62859375 -8.41695313 13.3040625 -9 14 C-10.125 10.25 -10.125 10.25 -9 8 C-8.01 8 -7.02 8 -6 8 C-5.814375 6.2984375 -5.814375 6.2984375 -5.625 4.5625 C-5.41875 3.386875 -5.2125 2.21125 -5 1 C-3 0 -3 0 0 0 Z " fill="#B89A7E" transform="translate(400,347)"/>
<path d="M0 0 C0.33 0.66 0.66 1.32 1 2 C-0.21258505 5.23356015 -1.01284458 6.00856305 -4 8 C-4.474375 8.94875 -4.94875 9.8975 -5.4375 10.875 C-6.96510195 13.9302039 -8.47970918 15.74042892 -11 18 C-11.99 17.67 -12.98 17.34 -14 17 C-13.01 15.515 -13.01 15.515 -12 14 C-11.34 14 -10.68 14 -10 14 C-9.773125 13.484375 -9.54625 12.96875 -9.3125 12.4375 C-7.51782382 9.10452995 -5.50034985 5.85296329 -3 3 C-2.34 3 -1.68 3 -1 3 C-0.67 2.01 -0.34 1.02 0 0 Z " fill="#C6AC8D" transform="translate(232,362)"/>
<path d="M0 0 C0.33 0 0.66 0 1 0 C1.20521049 3.66582607 1.32825201 7.3301594 1.4375 11 C1.49615234 12.02996094 1.55480469 13.05992187 1.61523438 14.12109375 C1.74371669 19.8844434 1.38044458 23.29249224 -2.46484375 27.75 C-4.38647461 29.671875 -4.38647461 29.671875 -6 31 C-6.33 31 -6.66 31 -7 31 C-6.67 28.69 -6.34 26.38 -6 24 C-4.35 23.34 -2.7 22.68 -1 22 C-0.67 14.74 -0.34 7.48 0 0 Z " fill="#E0C9A9" transform="translate(370,153)"/>
<path d="M0 0 C-0.33 0.66 -0.66 1.32 -1 2 C-1.66 2 -2.32 2 -3 2 C-3.226875 2.53625 -3.45375 3.0725 -3.6875 3.625 C-5.43382056 6.78500863 -7.6402849 9.2676983 -10 12 C-10 10 -10 8 -10 6 C-9.01 6 -8.02 6 -7 6 C-7 4.35 -7 2.7 -7 1 C-3.375 -1.125 -3.375 -1.125 0 0 Z " fill="#E1C9A5" transform="translate(275,131)"/>
<path d="M0 0 C0.66 0.33 1.32 0.66 2 1 C1.72285156 1.61488281 1.44570312 2.22976563 1.16015625 2.86328125 C0.79792969 3.67152344 0.43570313 4.47976563 0.0625 5.3125 C-0.29714844 6.11300781 -0.65679687 6.91351563 -1.02734375 7.73828125 C-2.07846041 10.09489608 -2.07846041 10.09489608 -3 13 C-3.99 13.33 -4.98 13.66 -6 14 C-6.66 13.34 -7.32 12.68 -8 12 C-6.625 9.5 -6.625 9.5 -5 7 C-4.34 7 -3.68 7 -3 7 C-2.690625 6.030625 -2.38125 5.06125 -2.0625 4.0625 C-1 1 -1 1 0 0 Z " fill="#B68A5D" transform="translate(234,361)"/>
<path d="M0 0 C0 3 0 3 -1 6 C6.92 6.33 14.84 6.66 23 7 C23 7.33 23 7.66 23 8 C14.42 8 5.84 8 -3 8 C-3 3.73173127 -2.62386487 3.06117568 0 0 Z " fill="#F9F0CF" transform="translate(75,181)"/>
<path d="M0 0 C0.66 1.32 1.32 2.64 2 4 C-1.45050505 8.80606061 -1.45050505 8.80606061 -4.125 9.75 C-5.053125 9.87375 -5.053125 9.87375 -6 10 C-6.99 10.495 -6.99 10.495 -8 11 C-6.79618552 8.50638429 -5.54571278 6.31856917 -4 4 C-3.34 4 -2.68 4 -2 4 C-1.34 2.68 -0.68 1.36 0 0 Z " fill="#C5A688" transform="translate(199,402)"/>
<path d="M0 0 C0.66 0.33 1.32 0.66 2 1 C1.54625 1.556875 1.0925 2.11375 0.625 2.6875 C-1.10594415 4.88468129 -1.10594415 4.88468129 -1.6875 7.375 C-3.72141874 11.44283749 -7.29562202 13.49308374 -11 16 C-9.32076975 12.19866558 -6.88537166 9.02917298 -4.375 5.75 C-3.95476562 5.19570312 -3.53453125 4.64140625 -3.1015625 4.0703125 C-2.07061281 2.71133337 -1.03570089 1.35536165 0 0 Z " fill="#EDDBC0" transform="translate(117,128)"/>
<path d="M0 0 C0.625 1.875 0.625 1.875 1 4 C-1 6 -1 6 -3.43017578 6.22705078 C-4.4251709 6.21657715 -5.42016602 6.20610352 -6.4453125 6.1953125 C-7.52167969 6.18886719 -8.59804687 6.18242187 -9.70703125 6.17578125 C-10.83496094 6.15902344 -11.96289062 6.14226562 -13.125 6.125 C-14.26066406 6.11597656 -15.39632812 6.10695312 -16.56640625 6.09765625 C-19.37781299 6.07403098 -22.18880298 6.04109013 -25 6 C-25 5.67 -25 5.34 -25 5 C-24.34926514 4.9906543 -23.69853027 4.98130859 -23.02807617 4.97167969 C-20.08044494 4.91800507 -17.13440607 4.8343545 -14.1875 4.75 C-13.16333984 4.73582031 -12.13917969 4.72164062 -11.08398438 4.70703125 C-10.10107422 4.67480469 -9.11816406 4.64257812 -8.10546875 4.609375 C-7.19949951 4.58842773 -6.29353027 4.56748047 -5.36010742 4.54589844 C-2.82525007 4.19860416 -2.82525007 4.19860416 -1.1809082 1.96191406 C-0.7912085 1.31448242 -0.40150879 0.66705078 0 0 Z " fill="#D4B585" transform="translate(228,181)"/>
<path d="M0 0 C0.33 1.32 0.66 2.64 1 4 C0.071875 4.12375 0.071875 4.12375 -0.875 4.25 C-3.11681553 4.78570011 -3.11681553 4.78570011 -4 6.6875 C-4.33 7.450625 -4.66 8.21375 -5 9 C-6.9375 12.25 -6.9375 12.25 -9 15 C-9.99 15 -10.98 15 -12 15 C-12 14.34 -12 13.68 -12 13 C-11.34 13 -10.68 13 -10 13 C-9.63261719 12.15695313 -9.63261719 12.15695313 -9.2578125 11.296875 C-7.77073461 8.58134146 -5.95937218 6.53608562 -3.875 4.25 C-3.15054688 3.45078125 -2.42609375 2.6515625 -1.6796875 1.828125 C-0.84824219 0.92320312 -0.84824219 0.92320312 0 0 Z " fill="#E8D6B8" transform="translate(259,176)"/>
<path d="M0 0 C0.33 0.66 0.66 1.32 1 2 C-0.78150459 6.65170644 -2.51851506 8.81981814 -7 11 C-7 7.22089522 -6.00296038 6.53893899 -3.5 3.8125 C-2.8503125 3.09707031 -2.200625 2.38164062 -1.53125 1.64453125 C-1.0259375 1.10183594 -0.520625 0.55914062 0 0 Z " fill="#E3D0AF" transform="translate(198,248)"/>
<path d="M0 0 C0.33 0.99 0.66 1.98 1 3 C0.50628906 3.39832031 0.01257813 3.79664062 -0.49609375 4.20703125 C-1.13675781 4.73683594 -1.77742188 5.26664063 -2.4375 5.8125 C-3.07558594 6.33457031 -3.71367188 6.85664063 -4.37109375 7.39453125 C-6.2548275 9.00834411 -6.2548275 9.00834411 -7 12 C-7.99 12 -8.98 12 -10 12 C-7.75066455 6.93899525 -4.58147862 3.10886049 0 0 Z " fill="#DDC197" transform="translate(125,123)"/>
<path d="M0 0 C0 2.33333333 0 4.66666667 0 7 C-0.66 7 -1.32 7 -2 7 C-2.33 7.66 -2.66 8.32 -3 9 C-4.64363134 9.72159424 -6.31050386 10.39351421 -8 11 C-6.63629701 8.00779732 -5.05091917 5.70973471 -2.875 3.25 C-2.33617187 2.63640625 -1.79734375 2.0228125 -1.2421875 1.390625 C-0.62730469 0.70226562 -0.62730469 0.70226562 0 0 Z " fill="#E5D2AE" transform="translate(246,191)"/>
<path d="M0 0 C1.32 0.33 2.64 0.66 4 1 C2.85793642 2.50287218 1.71125043 4.00223284 0.5625 5.5 C-0.39462891 6.75296875 -0.39462891 6.75296875 -1.37109375 8.03125 C-1.90863281 8.6809375 -2.44617188 9.330625 -3 10 C-3.33 10 -3.66 10 -4 10 C-4 8.02 -4 6.04 -4 4 C-3.34 3.67 -2.68 3.34 -2 3 C-1.34 3.33 -0.68 3.66 0 4 C0 2.68 0 1.36 0 0 Z " fill="#E3CDAA" transform="translate(255,149)"/>
<path d="M0 0 C0.66 0 1.32 0 2 0 C2.66 1.65 3.32 3.3 4 5 C1.03 5.66 -1.94 6.32 -5 7 C-1.125 1.125 -1.125 1.125 0 0 Z " fill="#A57A52" transform="translate(194,410)"/>
<path d="M0 0 C0.33 1.32 0.66 2.64 1 4 C0.360625 4.268125 -0.27875 4.53625 -0.9375 4.8125 C-3.33131686 5.88667752 -3.33131686 5.88667752 -4 9 C-6.5625 10.6875 -6.5625 10.6875 -9 12 C-7.55575365 8.76138697 -5.74227753 6.38030837 -3.375 3.75 C-2.74335938 3.04359375 -2.11171875 2.3371875 -1.4609375 1.609375 C-0.97882813 1.07828125 -0.49671875 0.5471875 0 0 Z " fill="#E2CFB0" transform="translate(134,324)"/>
<path d="M0 0 C0 3.84759538 -0.99356258 5.72281888 -3 9 C-6.1875 11.375 -6.1875 11.375 -9 13 C-7.50923566 9.7173068 -5.61379679 7.06922559 -3.375 4.25 C-2.74335937 3.45078125 -2.11171875 2.6515625 -1.4609375 1.828125 C-0.97882813 1.22484375 -0.49671875 0.6215625 0 0 Z " fill="#EBD8BC" transform="translate(128,115)"/>
<path d="M0 0 C0.625 1.875 0.625 1.875 1 4 C0.34 4.66 -0.32 5.32 -1 6 C-1.99 6 -2.98 6 -4 6 C-4.0825 6.61875 -4.165 7.2375 -4.25 7.875 C-5 10 -5 10 -7.0625 11.25 C-7.701875 11.4975 -8.34125 11.745 -9 12 C-7.55575365 8.76138697 -5.74227753 6.38030837 -3.375 3.75 C-2.74335938 3.04359375 -2.11171875 2.3371875 -1.4609375 1.609375 C-0.97882813 1.07828125 -0.49671875 0.5471875 0 0 Z " fill="#E6D3B3" transform="translate(313,112)"/>
<path d="M0 0 C0 3.60777515 -0.9904432 5.06295544 -3 8 C-3.99 8.495 -3.99 8.495 -5 9 C-5.33 9.99 -5.66 10.98 -6 12 C-6.99 12 -7.98 12 -9 12 C-9 11.34 -9 10.68 -9 10 C-8.34 10 -7.68 10 -7 10 C-6.34 8.35 -5.68 6.7 -5 5 C-4.34 5 -3.68 5 -3 5 C-2.690625 4.360625 -2.38125 3.72125 -2.0625 3.0625 C-1 1 -1 1 0 0 Z " fill="#E6D3B4" transform="translate(117,344)"/>
<path d="M0 0 C-0.3125 1.875 -0.3125 1.875 -1 4 C-3.66559313 5.77706209 -6.0280615 6.87548273 -9 8 C-7.47364599 4.11473526 -4.49771687 0 0 0 Z " fill="#DEC7A0" transform="translate(150,309)"/>
<path d="M0 0 C-0.50618255 4.38691545 -3.13082981 6.84391279 -6 10 C-6.33 10 -6.66 10 -7 10 C-7.3125 7.8125 -7.3125 7.8125 -7 5 C-2.77777778 0 -2.77777778 0 0 0 Z " fill="#DDC39E" transform="translate(340,209)"/>
<path d="M0 0 C0 3.93169105 -1.39419615 5.16427228 -4 8 C-4.66 8 -5.32 8 -6 8 C-6.33 8.66 -6.66 9.32 -7 10 C-7 8.35 -7 6.7 -7 5 C-6.360625 4.71125 -5.72125 4.4225 -5.0625 4.125 C-2.84793921 3.17176549 -2.84793921 3.17176549 -2 1 C-1.34 0.67 -0.68 0.34 0 0 Z " fill="#C5AC90" transform="translate(354,405)"/>
<path d="M0 0 C0.99 0.33 1.98 0.66 3 1 C1.44499019 4.81684226 -1.03595495 7.19195732 -4 10 C-4.33 8.68 -4.66 7.36 -5 6 C-4.01 6 -3.02 6 -2 6 C-2 5.01 -2 4.02 -2 3 C-1.34 3 -0.68 3 0 3 C0 2.01 0 1.02 0 0 Z " fill="#C3A488" transform="translate(360,394)"/>
<path d="M0 0 C0.99 0 1.98 0 3 0 C1.44499019 3.81684226 -1.03595495 6.19195732 -4 9 C-4 7.35 -4 5.7 -4 4 C-2.68 3.67 -1.36 3.34 0 3 C0 2.01 0 1.02 0 0 Z " fill="#DFC9A8" transform="translate(188,384)"/>
<path d="M0 0 C0.99 0.33 1.98 0.66 3 1 C3 1.66 3 2.32 3 3 C-1.35294118 7 -1.35294118 7 -5 7 C-5 6.34 -5 5.68 -5 5 C-4.34 5 -3.68 5 -3 5 C-2.5359375 4.0409375 -2.5359375 4.0409375 -2.0625 3.0625 C-1 1 -1 1 0 0 Z " fill="#DCC09D" transform="translate(178,272)"/>
<path d="M0 0 C0 4.07605096 -1.55272534 6.7838181 -4 10 C-6.25 10.9375 -6.25 10.9375 -8 11 C-6.63629701 8.00779732 -5.05091917 5.70973471 -2.875 3.25 C-2.33617187 2.63640625 -1.79734375 2.0228125 -1.2421875 1.390625 C-0.62730469 0.70226562 -0.62730469 0.70226562 0 0 Z " fill="#E8D5B6" transform="translate(284,146)"/>
<path d="M0 0 C0.99 0.33 1.98 0.66 3 1 C0.69 3.97 -1.62 6.94 -4 10 C-4.33 8.68 -4.66 7.36 -5 6 C-4.34 6 -3.68 6 -3 6 C-3 5.01 -3 4.02 -3 3 C-2.01 3 -1.02 3 0 3 C0 2.01 0 1.02 0 0 Z " fill="#E6D2B4" transform="translate(285,114)"/>
<path d="M0 0 C0.66 0 1.32 0 2 0 C1.46930939 3.82097239 0.50298434 6.06171403 -2 9 C-2.66 8.67 -3.32 8.34 -4 8 C-4 6.68 -4 5.36 -4 4 C-3.34 4 -2.68 4 -2 4 C-1.34 2.68 -0.68 1.36 0 0 Z " fill="#BFA187" transform="translate(381,368)"/>
<path d="M0 0 C0.66 0 1.32 0 2 0 C1.5206753 4.31392226 0.2542015 6.16569547 -3 9 C-2.25 2.25 -2.25 2.25 0 0 Z " fill="#DDC5A0" transform="translate(249,312)"/>
<path d="M0 0 C0.33 0.66 0.66 1.32 1 2 C1.66 2.33 2.32 2.66 3 3 C1.37660195 4.70884005 -0.29319053 6.37446717 -2 8 C-2.66 8 -3.32 8 -4 8 C-2.87548273 5.0280615 -1.77706209 2.66559313 0 0 Z " fill="#DCC19D" transform="translate(323,225)"/>
<path d="M0 0 C0 2.83967231 -0.40267181 5.23735711 -1 8 C-1.61875 8.144375 -2.2375 8.28875 -2.875 8.4375 C-5.03258322 8.93152225 -5.03258322 8.93152225 -7 10 C-5.33248852 6.05860922 -2.77289351 3.2107188 0 0 Z " fill="#EAD1B9" transform="translate(235,204)"/>
<path d="M0 0 C0.99 0.33 1.98 0.66 3 1 C0.69 3.97 -1.62 6.94 -4 10 C-4.33 8.68 -4.66 7.36 -5 6 C-4.34 6 -3.68 6 -3 6 C-3 5.01 -3 4.02 -3 3 C-2.01 3 -1.02 3 0 3 C0 2.01 0 1.02 0 0 Z " fill="#E8D4BB" transform="translate(247,160)"/>
<path d="M0 0 C0 3.64478912 -0.85802506 5.09303401 -3 8 C-5.1875 8.8125 -5.1875 8.8125 -7 9 C-7 8.34 -7 7.68 -7 7 C-6.34 7 -5.68 7 -5 7 C-4.731875 6.401875 -4.46375 5.80375 -4.1875 5.1875 C-3.01506533 3.02775192 -1.80630718 1.64209744 0 0 Z " fill="#E4CEAD" transform="translate(303,124)"/>
<path d="M0 0 C1 2 1 2 0 6 C-3.3 6 -6.6 6 -10 6 C-7 4 -7 4 -4.4375 3.5625 C-1.64573325 3.21178049 -1.64573325 3.21178049 0 0 Z " fill="#D3B48D" transform="translate(154,422)"/>
<path d="M0 0 C1 2 1 2 0.3125 4.5 C-1.19405566 7.36962982 -2.05792753 7.84100175 -5 9 C-5.99 9.66 -6.98 10.32 -8 11 C-6.63055898 8.05043472 -5.12169591 5.47531189 -3 3 C-2.34 3 -1.68 3 -1 3 C-0.67 2.01 -0.34 1.02 0 0 Z " fill="#CCB397" transform="translate(241,351)"/>
<path d="M0 0 C0.66 0.33 1.32 0.66 2 1 C1.64950425 4.24208567 1.43778819 5.61527704 -1.0625 7.8125 C-1.701875 8.204375 -2.34125 8.59625 -3 9 C-2.67 7.35 -2.34 5.7 -2 4 C-1.34 4 -0.68 4 0 4 C-0.33 3.01 -0.66 2.02 -1 1 C-0.67 0.67 -0.34 0.34 0 0 Z " fill="#DEC4A3" transform="translate(298,254)"/>
<path d="M0 0 C0.66 0 1.32 0 2 0 C1.52797514 4.24822374 -0.96655518 6.19989709 -4 9 C-3.67 6.69 -3.34 4.38 -3 2 C-2.01 2 -1.02 2 0 2 C0 1.34 0 0.68 0 0 Z " fill="#DCC29F" transform="translate(330,218)"/>
<path d="M0 0 C1.32 0.33 2.64 0.66 4 1 C1.03 3.475 1.03 3.475 -2 6 C-2.66 5.67 -3.32 5.34 -4 5 C-2.68 3.35 -1.36 1.7 0 0 Z " fill="#E5CFB0" transform="translate(80,175)"/>
<path d="M0 0 C0.33 0 0.66 0 1 0 C1 1.98 1 3.96 1 6 C-1.31 6.66 -3.62 7.32 -6 8 C-5.02471263 6.66382648 -4.04466681 5.3311249 -3.0625 4 C-2.24458984 2.88625 -2.24458984 2.88625 -1.41015625 1.75 C-0.94480469 1.1725 -0.47945313 0.595 0 0 Z " fill="#E5D4AD" transform="translate(105,144)"/>
<path d="M0 0 C-1.64169528 2.02054804 -3.30911778 4.02043058 -5 6 C-5.33 6 -5.66 6 -6 6 C-6 4.02 -6 2.04 -6 0 C-3.50907189 -1.24546405 -2.58919267 -0.7767578 0 0 Z " fill="#E3CBB0" transform="translate(178,401)"/>
<path d="M0 0 C0.33 0.66 0.66 1.32 1 2 C1.66 2.33 2.32 2.66 3 3 C1.35 4.65 -0.3 6.3 -2 8 C-1.125 1.125 -1.125 1.125 0 0 Z " fill="#BDA181" transform="translate(365,387)"/>
<path d="M0 0 C0.99 0.33 1.98 0.66 3 1 C2.19152271 2.16945792 1.37810888 3.33550461 0.5625 4.5 C0.11003906 5.1496875 -0.34242188 5.799375 -0.80859375 6.46875 C-1.20175781 6.9740625 -1.59492188 7.479375 -2 8 C-2.33 8 -2.66 8 -3 8 C-3 6.35 -3 4.7 -3 3 C-2.01 2.67 -1.02 2.34 0 2 C0 1.34 0 0.68 0 0 Z " fill="#DFCBAE" transform="translate(350,195)"/>
<path d="M0 0 C0.33 0.66 0.66 1.32 1 2 C-0.1875 5.0625 -0.1875 5.0625 -2 8 C-3.32 8.33 -4.64 8.66 -6 9 C-4.02 6.03 -2.04 3.06 0 0 Z " fill="#E8D9BE" transform="translate(98,152)"/>
<path d="M0 0 C0 0.99 0 1.98 0 3 C-2 4.6875 -2 4.6875 -4 6 C-4.33 5.34 -4.66 4.68 -5 4 C-3.74458443 1.48916886 -2.49936512 1.12874554 0 0 Z M-8 8 C-7.01 8.495 -7.01 8.495 -6 9 C-6.99 9.495 -6.99 9.495 -8 10 C-8 9.34 -8 8.68 -8 8 Z " fill="#B2895E" transform="translate(222,378)"/>
<path d="M0 0 C0.66 0.99 1.32 1.98 2 3 C-3.75 6.875 -3.75 6.875 -6 8 C-4.55746343 4.63408134 -2.66735273 2.48952921 0 0 Z " fill="#E7D2AF" transform="translate(266,168)"/>
<path d="M0 0 C0.99 0 1.98 0 3 0 C2.6875 2.375 2.6875 2.375 2 5 C1.01 5.66 0.02 6.32 -1 7 C-0.67 4.69 -0.34 2.38 0 0 Z " fill="#DEC3A2" transform="translate(155,421)"/>
<path d="M0 0 C0.99 0 1.98 0 3 0 C2.43628586 3.26954202 1.50037734 4.82575883 -1 7 C-0.67 4.69 -0.34 2.38 0 0 Z " fill="#B29676" transform="translate(340,418)"/>
<path d="M0 0 C0.66 0 1.32 0 2 0 C1.67 1.32 1.34 2.64 1 4 C-0.32 4.33 -1.64 4.66 -3 5 C-3.33 4.01 -3.66 3.02 -4 2 C-2.68 1.67 -1.36 1.34 0 1 C0 0.67 0 0.34 0 0 Z M-5 5 C-4.01 5.495 -4.01 5.495 -3 6 C-3.99 6.495 -3.99 6.495 -5 7 C-5 6.34 -5 5.68 -5 5 Z " fill="#D9BC91" transform="translate(161,414)"/>
<path d="M0 0 C0.66 0.33 1.32 0.66 2 1 C1.625 2.9375 1.625 2.9375 1 5 C0.01 5.495 0.01 5.495 -1 6 C-1.66 5.67 -2.32 5.34 -3 5 C-1.125 1.125 -1.125 1.125 0 0 Z " fill="#DEC19E" transform="translate(207,361)"/>
<path d="M0 0 C0.25 2.3125 0.25 2.3125 0 5 C-2 6.8125 -2 6.8125 -4 8 C-4.36780384 3.46375267 -4.36780384 3.46375267 -2.5625 1.1875 C-1 0 -1 0 0 0 Z " fill="#E1CB9E" transform="translate(263,297)"/>
<path d="M0 0 C0.66 0.33 1.32 0.66 2 1 C0.38405168 3.04119788 -1.2856382 5.04072937 -3 7 C-3.66 7 -4.32 7 -5 7 C-3.70700306 4.11562221 -2.34058637 2.12780579 0 0 Z " fill="#D9BE90" transform="translate(94,160)"/>
<path d="M0 0 C0.33 0.66 0.66 1.32 1 2 C-0.25 4.625 -0.25 4.625 -2 7 C-2.99 7 -3.98 7 -5 7 C-5 6.34 -5 5.68 -5 5 C-4.34 5 -3.68 5 -3 5 C-2.5359375 4.0409375 -2.5359375 4.0409375 -2.0625 3.0625 C-1 1 -1 1 0 0 Z " fill="#E6D0A9" transform="translate(290,139)"/>
<path d="M0 0 C0.66 0.99 1.32 1.98 2 3 C0.35 4.98 -1.3 6.96 -3 9 C-3 7 -3 5 -3 3 C-2.01 3 -1.02 3 0 3 C0 2.01 0 1.02 0 0 Z " fill="#EAD4B7" transform="translate(268,134)"/>
<path d="M0 0 C0.66 0.33 1.32 0.66 2 1 C2 1.66 2 2.32 2 3 C-0.375 4.6875 -0.375 4.6875 -3 6 C-3.66 5.67 -4.32 5.34 -5 5 C-3.35 3.35 -1.7 1.7 0 0 Z " fill="#E2CCA9" transform="translate(134,109)"/>
<path d="M0 0 C1.65 0 3.3 0 5 0 C3.69593116 2.01920337 2.36176581 4.01924973 1 6 C0.67 6 0.34 6 0 6 C0 4.02 0 2.04 0 0 Z " fill="#DEC79C" transform="translate(220,345)"/>
<path d="M0 0 C0.66 0 1.32 0 2 0 C1.67 1.98 1.34 3.96 1 6 C-0.65 6.33 -2.3 6.66 -4 7 C-2.79618552 4.50638429 -1.54571278 2.31856917 0 0 Z " fill="#E8D7C1" transform="translate(150,304)"/>
<path d="M0 0 C0.66 0.99 1.32 1.98 2 3 C-0.97 5.475 -0.97 5.475 -4 8 C-3.67 6.68 -3.34 5.36 -3 4 C-2.34 4 -1.68 4 -1 4 C-0.67 2.68 -0.34 1.36 0 0 Z " fill="#D5B98D" transform="translate(164,290)"/>
</svg>
